<?xml version="1.0" ?><!DOCTYPE svg  PUBLIC '-//W3C//DTD SVG 1.1//EN'  'http://www.w3.org/Graphics/SVG/1.1/DTD/svg11.dtd'><svg enable-background="new 0 0 512 512" height="512px" id="Layer_1" version="1.1" viewBox="0 0 512 512" width="512px" xml:space="preserve" xmlns="http://www.w3.org/2000/svg" xmlns:xlink="http://www.w3.org/1999/xlink"><path d="M272.116,260.261h175.798c-4.902-72.878-80.376-131.559-175.798-137.507V79.657  c0-8.05-6.531-14.589-14.581-14.589c-8.054,0-14.585,6.539-14.585,14.589v43c-96.66,5.013-173.508,64.047-178.458,137.604h178.473  l0.007,137.501c0.185,4.01-0.789,13.711-4.991,18.112c-1.212,1.261-3.2,2.72-7.862,2.72c-5.456,0-7.729-1.688-8.954-2.948  c-3.896-4.011-4.563-12.009-4.493-14.368c0.376-8.05-5.838-14.876-13.881-15.26c-8.131-0.398-14.876,5.831-15.26,13.881  c-0.099,2.22-0.641,22.072,12.47,35.82c5.241,5.492,14.722,12.046,30.118,12.046c11.699,0,21.769-4.128,29.126-11.921  c13.889-14.729,12.997-37.19,12.871-38.85V260.261z" fill="#010101"/><path d="M250.904,263.298" fill="#010101"/><path d="M89.869,263.298" fill="#010101"/></svg>